<?xml version="1.0" encoding="UTF-8"?>
<svg width="73px" height="85px" viewBox="0 0 59 69" version="1.1" xmlns="http://www.w3.org/2000/svg" xmlns:xlink="http://www.w3.org/1999/xlink">
    <!-- Generator: Sketch 51.2 (57519) - http://www.bohemiancoding.com/sketch -->
    <title>origin_white</title>
    <desc>Created with Sketch.</desc>
    <defs></defs>
    <g id="Demo-Page" stroke="none" stroke-width="1" fill="none" fill-rule="evenodd">
        <g id="origin_white" fill="#FFFFFF" fill-rule="nonzero">
            <path d="M28.84,0.234 C29.0727352,0.10581985 29.3652108,0.186029045 29.5,0.415 C29.5120269,0.436164016 29.5223914,0.458230408 29.531,0.481 C29.5769625,0.709302699 29.5012616,0.945111129 29.331,1.104 C28.4198429,2.39225257 27.8007758,3.8638166 27.517,5.416 C27.3547764,5.48735259 27.2792697,5.67523095 27.347,5.839 C27.433,5.87 27.519,5.898 27.607,5.923 C29.3898121,5.74294228 31.1894158,5.82616679 32.948,6.17 C37.262981,7.0123859 41.0629647,9.5428858 43.503923,13.1994413 C45.9448812,16.8559968 46.8247145,21.3358627 45.948,25.644 C45.700687,26.8268769 45.322701,27.9786104 44.821,29.078 C41.711255,35.5651629 36.6479691,40.9155514 30.342,44.378 C30.1330552,44.4957648 29.8705528,44.4543607 29.708,44.278 C29.5625259,44.0582099 29.5900087,43.7667262 29.774,43.578 C30.6175814,42.4067435 31.2168119,41.0776898 31.536,39.67 C31.6197383,39.3832615 31.6605147,39.085695 31.657,38.787 C31.5401827,38.6891713 31.3822221,38.6561534 31.236,38.699 C24.7698041,39.357088 18.5059925,36.2179726 15.163,30.644 C13.6209213,28.0666724 12.8288679,25.1100656 12.876,22.107 C12.9045377,19.3553457 13.626826,16.6553631 14.976,14.257 C18.1280412,8.32854917 22.9478767,3.45343721 28.84,0.234 Z M28.669,15.934 C26.8408167,16.1892978 25.2045396,17.2023522 24.161,18.725 C22.4744205,21.2194336 22.7594475,24.5530837 24.845,26.725 C27.338983,29.3043435 31.4385673,29.4132686 34.066,26.97 C35.319914,25.8057584 36.0527229,24.1860091 36.0993727,22.4755757 C36.1460226,20.7651423 35.5025907,19.1078578 34.314,17.877 C32.8520707,16.36257 30.7535101,15.6395053 28.669,15.932 L28.669,15.934 Z M24.723,51.234 C25.5255757,51.0230562 26.3738761,51.3417702 26.839,52.029 C27.1546907,52.5059606 27.2405271,53.0991117 27.073,53.646 C26.7453094,54.6582671 25.6634422,55.2177151 24.648,54.9 C24.1606797,54.7544751 23.7520447,54.4196526 23.5135402,53.9704598 C23.2750358,53.521267 23.2265741,52.995206 23.379,52.51 C23.5795578,51.8833779 24.0865559,51.402786 24.723,51.236 L24.723,51.234 Z M42.465,51.221 C43.4976234,50.9714261 44.5388031,51.5992552 44.8,52.629 C44.9193252,53.1241694 44.8359288,53.6464885 44.5683442,54.0798817 C44.3007595,54.513275 43.8711543,54.8218385 43.375,54.937 C42.3413114,55.1905326 41.2964773,54.5634537 41.034,53.532 C40.921221,53.0734485 40.9843732,52.5892812 41.211,52.175 C41.4759367,51.6955453 41.9309504,51.3501997 42.464,51.224 L42.465,51.221 Z M6.143,53.131 C7.51958148,52.9632145 8.91566726,53.1831387 10.174,53.766 C12.3241179,54.7745527 13.7416796,56.8878453 13.85918,59.2598443 C13.9766803,61.6318433 12.774916,63.874888 10.735,65.091 C8.71168513,66.2720337 6.25014238,66.4306278 4.092,65.519 C1.33846275,64.3656335 -0.249294036,61.4591749 0.268,58.519 C0.490022001,57.1855992 1.1343099,55.958718 2.106,55.019 C3.20469734,53.958866 4.62502446,53.2946159 6.143,53.131 Z M6.526,56.256 C5.81266982,56.3538569 5.15642764,56.6993221 4.672,57.232 C3.49459228,58.5965453 3.51515432,60.6236196 4.72,61.964 C5.37107375,62.6599798 6.30133055,63.0251754 7.252,62.958 C8.06885534,62.9157297 8.83590135,62.5523354 9.386,61.947 C10.6302015,60.5086799 10.5258952,58.3468544 9.149,57.035 C8.43227612,56.4013707 7.47229627,56.116634 6.526,56.257 L6.526,56.256 Z M56.026,54.524 L57.217,54.524 L57.217,54.789 L56.774,54.789 L56.774,55.96 L56.486,55.96 L56.486,54.786 L56.027,54.786 C56.028,54.7 56.027,54.61 56.028,54.523 L56.026,54.524 Z M57.515,54.524 C57.624,54.524 57.733,54.524 57.843,54.533 C57.973,54.751 58.111,54.964 58.254,55.174 C58.4,54.96 58.539,54.741 58.68,54.524 L58.991,54.524 L58.991,55.96 L58.708,55.96 C58.708,55.638 58.708,55.316 58.7,54.995 C58.54,55.209 58.4,55.436 58.252,55.656 C58.099,55.43 57.952,55.203 57.805,54.975 L57.805,55.96 L57.52,55.96 C57.518,55.482 57.522,55 57.518,54.522 L57.515,54.524 Z M38.655,55.2 C38.7727413,55.1272027 38.8977501,55.0668767 39.028,55.02 C39.1835289,55.0537643 39.2997288,55.1836823 39.316,55.342 C39.316,58.133 39.316,60.926 39.316,63.717 C39.3528273,64.8125391 39.0729826,65.8954615 38.51,66.836 C37.9326739,67.6470114 37.0829892,68.2234057 36.116,68.46 C33.7773838,69.0052969 31.3245706,68.770341 29.132,67.791 C29.0520731,67.7649885 28.9859115,67.7080183 28.9483219,67.6328391 C28.9107322,67.5576598 28.904853,67.4705484 28.932,67.391 C28.9363678,67.3773005 28.941715,67.3639327 28.948,67.351 C29.22,66.783 29.498,66.2163333 29.782,65.651 C29.8653711,65.4926729 30.0602537,65.4303817 30.22,65.511 C30.2342513,65.5179565 30.247957,65.5259793 30.261,65.535 C31.3609822,66.1039805 32.5985975,66.3527509 33.833,66.253 C34.4651753,66.2227825 35.0569628,65.9333999 35.469,65.453 C35.8317975,64.8992756 35.9876086,64.2353077 35.909,63.578 C35.3921609,64.1936458 34.7051359,64.6430819 33.934,64.87 C32.6972878,65.1731841 31.3900556,64.9404241 30.334,64.229 C29.5049946,63.6429034 28.9199904,62.7728699 28.69,61.784 C28.4996922,60.9796071 28.4884267,60.1432268 28.657,59.334 C28.8586894,58.3242919 29.4170507,57.4209038 30.23,56.789 C30.766882,56.3813028 31.3949818,56.1104992 32.06,56 C32.4576407,55.9468231 32.8592498,55.92942 33.26,55.948 L35.736,55.948 C35.8312297,55.935145 35.9279364,55.9563992 36.009,56.008 C36.217,56.181 36.394,56.386 36.592,56.569 C37.277,56.111 37.975,55.675 38.655,55.204 L38.655,55.2 Z M33.355,58.691 C32.7023908,58.8384268 32.1801338,59.3265545 31.9890049,59.9677278 C31.7978759,60.6089011 31.9676273,61.3033112 32.433,61.784 C33.2711691,62.57327 34.5800792,62.5697573 35.414,61.776 C36.0939391,61.0394806 36.0847472,59.9014404 35.393,59.176 C34.8437878,58.6741381 34.0760018,58.4881339 33.358,58.683 L33.355,58.691 Z M51.547,56.226 C52.1919944,55.961854 52.8987279,55.8862564 53.585,56.008 C54.2960433,56.1090049 54.9475678,56.4608352 55.422,57 C55.8253687,57.4909664 56.0843396,58.0843837 56.17,58.714 C56.2325805,59.2331625 56.2543139,59.7564362 56.235,60.279 L56.235,65.479 C56.2501295,65.5615153 56.2317193,65.646657 56.1838507,65.7155502 C56.1359822,65.7844435 56.06261,65.8313964 55.98,65.846 C55.9572473,65.8501475 55.934113,65.8518239 55.911,65.851 L53.1,65.851 C52.9421002,65.8723354 52.796721,65.7618472 52.775,65.604 C52.7726128,65.5830678 52.7726128,65.5619322 52.775,65.541 L52.775,60.651 C52.802216,60.1770379 52.6444811,59.7110031 52.335,59.351 C51.7580451,58.8373788 50.8762403,58.8796023 50.351,59.446 C50.3028256,59.4982361 50.2586981,59.5540641 50.219,59.613 C50.0229822,59.9672189 49.9317661,60.3698877 49.956,60.774 L49.956,65.534 C49.9653376,65.6060385 49.9455797,65.678828 49.9010994,65.7362583 C49.856619,65.7936886 49.7910844,65.8310236 49.719,65.84 L49.692,65.84 C48.785,65.848 47.872,65.84 46.962,65.84 C46.8355103,65.8618817 46.7054887,65.8331477 46.6,65.76 C46.5166789,65.6383333 46.4810804,65.4902438 46.5,65.344 C46.505,62.404 46.5,59.463 46.5,56.523 C46.4916451,56.4375731 46.5176362,56.3523339 46.5722347,56.2861028 C46.6268331,56.2198717 46.7055482,56.1780961 46.791,56.17 L46.827,56.17 C47.734,56.159 48.65,56.17 49.561,56.17 C49.7301552,56.1408024 49.8946453,56.2418952 49.945,56.406 C49.967,56.777 49.945,57.149 49.953,57.521 C50.3668494,56.9640203 50.9129684,56.5189453 51.542,56.226 L51.547,56.226 Z M20.1,56.44 C20.5466907,56.161699 21.061719,56.0125208 21.588,56.009 C21.667471,56.0017892 21.7465402,56.026537 21.807719,56.0777696 C21.8688979,56.1290022 21.9071447,56.2024976 21.914,56.282 C21.9153682,56.2983047 21.9153682,56.3146953 21.914,56.331 L21.914,59.277 C21.9140004,59.3641645 21.8793061,59.4477445 21.8175777,59.5092853 C21.7558494,59.5708261 21.6721641,59.6052657 21.585,59.605 C21.563858,59.6049865 21.5427645,59.6029776 21.522,59.599 C20.7965241,59.5729087 20.0923167,59.8467069 19.575,60.356 C19.0810746,60.9689459 18.8162181,61.7348727 18.826,62.522 C18.818,63.522 18.831,64.522 18.821,65.522 C18.8259068,65.6030946 18.7977138,65.6827119 18.7428672,65.7426473 C18.6880206,65.8025828 18.6112106,65.837711 18.53,65.84 C18.5140233,65.8412208 18.4979767,65.8412208 18.482,65.84 L15.682,65.84 C15.5976675,65.8499244 15.5134055,65.8209027 15.4530707,65.7611518 C15.3927358,65.7014008 15.3628962,65.617425 15.372,65.533 L15.372,56.454 C15.3771353,56.3688845 15.416029,56.2893387 15.48005,56.2330152 C15.544071,56.1766917 15.6279238,56.1482494 15.713,56.154 L15.745,56.154 L18.479,56.154 C18.6531752,56.1395855 18.8061583,56.2688607 18.821,56.443 C18.821,56.443 18.821,56.453 18.821,56.458 C18.839,56.988 18.821,57.517 18.828,58.048 C19.084309,57.3983818 19.5268307,56.8389675 20.1,56.44 Z M23.817,56.169 C24.701,56.158 25.584,56.169 26.468,56.163 C26.6071576,56.1413031 26.7491368,56.1774301 26.861,56.263 C26.9392228,56.3520779 26.9756162,56.4703563 26.961,56.588 L26.961,65.478 C26.9764729,65.5589308 26.9589818,65.6426895 26.9124133,65.7106644 C26.8658449,65.7786393 26.7940565,65.8251998 26.713,65.84 C26.6951752,65.8432013 26.6771095,65.844874 26.659,65.845 L23.8,65.845 C23.7161802,65.8426468 23.6367325,65.8070752 23.5791517,65.7461183 C23.5215709,65.6851614 23.4905788,65.6038179 23.493,65.52 C23.4935184,65.5045635 23.4951897,65.4891874 23.498,65.474 L23.498,56.518 C23.4863793,56.4268667 23.5156467,56.3352586 23.5779531,56.2677439 C23.6402595,56.2002292 23.7292287,56.1637172 23.821,56.168 L23.817,56.169 Z M41.453,56.175 C42.376,56.15 43.302,56.175 44.226,56.164 C44.4056726,56.1252711 44.5833612,56.237215 44.626,56.416 C44.6291077,56.4291862 44.631445,56.4425421 44.633,56.456 C44.639,59.483 44.633,62.511 44.633,65.538 C44.6487813,65.6872434 44.5411367,65.8212408 44.392,65.838 L44.356,65.838 C43.401,65.838 42.441,65.838 41.489,65.838 C41.3461489,65.8437362 41.2217623,65.7413002 41.2,65.6 C41.1768213,65.3881693 41.1704681,65.1748347 41.181,64.962 L41.181,56.519 C41.1661141,56.3487498 41.2876346,56.1968492 41.457,56.174 L41.453,56.175 Z" id="Color_Fill_5"></path>
        </g>
    </g>
</svg>