<?xml version="1.0" encoding="UTF-8"?>
<svg width="104px" height="85px" viewBox="0 0 84 69" version="1.1" xmlns="http://www.w3.org/2000/svg" xmlns:xlink="http://www.w3.org/1999/xlink">
    <!-- Generator: Sketch 51.2 (57519) - http://www.bohemiancoding.com/sketch -->
    <title>ps4_white</title>
    <desc>Created with Sketch.</desc>
    <defs></defs>
    <g id="Demo-Page" stroke="none" stroke-width="1" fill="none" fill-rule="evenodd">
        <g id="ps4_white" fill="#1b2c63" fill-rule="nonzero">
            <path d="M80.547,66.937 L82.017,66.937 L82.017,67.154 L81.417,67.154 L81.417,68.826 L81.157,68.826 L81.157,67.154 L80.547,67.154 L80.547,66.937 Z M81.158,68.826 L81.414,68.826 L81.414,67.154 L82.02,67.154 L82.02,66.937 L80.55,66.937 L80.55,67.154 L81.158,67.154 L81.158,68.826 Z M82.252,66.937 L82.6,66.937 L83.149,68.551 L83.68,66.938 L83.989,66.938 L83.989,68.827 L83.786,68.827 L83.786,67.291 L83.276,68.826 L83.022,68.826 L82.512,67.291 L82.512,68.826 L82.251,68.826 L82.251,66.937 L82.252,66.937 Z M82.513,67.291 L83.023,68.826 L83.277,68.826 L83.787,67.291 L83.787,68.826 L84,68.826 L84,66.937 L83.689,66.937 L83.158,68.551 L82.61,66.937 L82.255,66.937 L82.255,68.826 L82.512,68.826 L82.512,67.291 L82.513,67.291 Z M40.389,64.3 L40.389,56.49 C40.389,54.897 41.135,53.755 42.725,53.755 L52.533,53.755 C52.5964763,53.7510828 52.6470828,53.7004763 52.651,53.637 L52.651,52.083 C52.6506318,52.069208 52.6475746,52.0556206 52.642,52.043 L40.649,52.043 C39.5473941,52.1176334 38.5206179,52.6270409 37.7947649,53.4590523 C37.0689118,54.2910637 36.7035028,55.377453 36.779,56.479 L36.779,64.3 C36.779,65.893 36.012,67.035 34.443,67.035 L24.086,67.035 C24.0560228,67.0336442 24.0267374,67.0442675 24.0046015,67.0645276 C23.9824656,67.0847876 23.9692971,67.1130203 23.968,67.143 C23.9678105,67.1463306 23.9678105,67.1496694 23.968,67.153 L23.968,68.71 C23.9665274,68.7670921 24.0008812,68.8190223 24.054,68.84 L35.815,68.84 C37.0464327,68.9259521 38.2550916,68.476533 39.1312147,67.6069224 C40.0073377,66.7373119 40.4657621,65.5320397 40.389,64.3 Z M0.089,68.835 L3.532,68.835 C3.58511885,68.8140223 3.61947264,68.7620921 3.618,68.705 L3.618,63.73 C3.618,62.137 4.518,61.03 5.834,61.03 L20.024,61.03 C23.224,61.03 24.772,59.063 24.772,56.485 C24.8492215,55.383913 24.4857847,54.2972602 23.761672,53.4641837 C23.0375593,52.6311071 22.0121112,52.1198767 20.911,52.043 L0.029,52.043 C0.0205419098,52.0548605 0.0150548194,52.0685782 0.013,52.083 L0.013,53.637 C0.00638872018,53.6696976 0.0165175555,53.7035388 0.0400055512,53.7272275 C0.0634935469,53.7509163 0.097247309,53.7613328 0.13,53.755 L18.83,53.755 C20.419,53.755 21.165,54.896 21.165,56.49 C21.165,58.084 20.419,59.225 18.83,59.225 L4.035,59.225 C1.735,59.225 0.013,61.173 0.013,63.731 L0.013,68.709 C0.00715824476,68.7652054 0.040055078,68.8182515 0.093,68.838 L0.089,68.835 Z M52.589,67.035 L71.425,67.035 C71.448483,67.0318829 71.4722397,67.0382564 71.4910092,67.0527089 C71.5097786,67.0671613 71.522012,67.0885002 71.525,67.112 L71.525,68.712 C71.5239203,68.7422397 71.5349072,68.7716681 71.5555401,68.7938016 C71.576173,68.8159351 71.604759,68.8289575 71.635,68.83 L75.035,68.83 C75.064712,68.8313561 75.0937432,68.8208382 75.1156917,68.8007656 C75.1376401,68.7806931 75.1507031,68.7527146 75.152,68.723 C75.1521904,68.7193358 75.1521904,68.7156642 75.152,68.712 L75.152,67.154 C75.1567635,67.0909087 75.2069087,67.0407635 75.27,67.036 L78.643,67.036 C78.6729772,67.0373558 78.7022626,67.0267325 78.7243985,67.0064724 C78.7465344,66.9862124 78.7597029,66.9579797 78.761,66.928 C78.7611917,66.9246694 78.7611917,66.9213306 78.761,66.918 L78.761,65.344 C78.7623558,65.3140228 78.7517325,65.2847374 78.7314724,65.2626015 C78.7112124,65.2404656 78.6829797,65.2272971 78.653,65.226 L75.273,65.226 C75.208118,65.2209581 75.1573465,65.1680353 75.155,65.103 L75.155,53.755 C75.2662496,53.0421631 74.8894008,52.3424177 74.233,52.043 L73.249,52.043 C72.8964885,52.1382359 72.5596503,52.2840869 72.249,52.476 L51.965,64.97 C51.18,65.462 50.905,66.012 51.102,66.426 C51.4335944,66.907592 52.0189358,67.1470677 52.593,67.036 L52.589,67.035 Z M36.224,0 C38.124,0.355 40.005,0.861 41.871,1.389 C42.938,1.7 44,2.018 45.059,2.359 C46.7364982,2.84632964 48.3531989,3.52266677 49.878,4.375 C50.5600743,4.7725693 51.1899302,5.25361128 51.753,5.807 C52.3509151,6.39372575 52.8407409,7.08124212 53.2,7.838 C53.8079015,9.22409283 54.1299902,10.7185575 54.147,12.232 C54.2054985,13.2127652 54.1562035,14.1969882 54,15.167 C53.8607926,16.0144801 53.5643669,16.8284639 53.126,17.567 C52.730639,18.2212168 52.1697932,18.7596427 51.5,19.128 C50.8506322,19.4723493 50.1238353,19.6444944 49.389,19.628 C48.2840611,19.6004908 47.1991234,19.3272067 46.213,18.828 C46.195,15.528 46.213,12.228 46.205,8.936 C46.2327575,8.33858964 46.2036263,7.73989336 46.118,7.148 C46.0517068,6.68044686 45.8297604,6.24888428 45.488,5.923 C45.2425241,5.71715439 44.9473855,5.57923917 44.632,5.523 C44.3130651,5.46751544 43.9894737,5.59203279 43.79,5.847 C43.4980436,6.26757957 43.3500043,6.77133423 43.368,7.283 L43.368,33.765 L36.226,31.5 C36.222,21 36.2213333,10.5 36.224,0 Z M25.524,22.339 C28.6313333,21.239 31.7343333,20.139 34.833,19.039 L34.833,22.687 C34.8385948,22.8537589 34.8345881,23.0207015 34.821,23.187 C32.367,24.055 29.921,24.938 27.466,25.811 C27.1156552,25.9200425 26.7920386,26.1012678 26.516,26.343 C26.3759362,26.4574175 26.3157145,26.6431661 26.362,26.818 C26.4668404,27.0090105 26.6412595,27.1522705 26.849,27.218 C27.3959816,27.4053678 27.9708418,27.4983599 28.549,27.493 C29.1874227,27.4899429 29.8239336,27.4229417 30.449,27.293 C30.8696553,27.2018437 31.2820586,27.0760824 31.682,26.917 C32.73,26.539 33.782,26.158 34.827,25.784 C34.835,26.812 34.827,27.841 34.827,28.87 C34.827,29.076 34.836,29.282 34.816,29.487 C33.5315838,29.7295043 32.229691,29.8679538 30.923,29.901 C28.2801425,29.9546442 25.6473704,29.5590182 23.137,28.731 C22.3030421,28.5185011 21.5152739,28.1544464 20.813,27.657 C20.4213437,27.3755478 20.1145166,26.9919274 19.926,26.548 C19.7790821,26.1608644 19.7956838,25.7306618 19.972,25.356 C20.1575868,24.9944849 20.4365793,24.6892506 20.78,24.472 C21.5594638,23.9546283 22.3901884,23.5189922 23.259,23.172 C24,22.86 24.767,22.614 25.524,22.339 Z M50.494,20.954 C51.194,20.873 51.907,20.854 52.613,20.828 C54.9480635,20.8133289 57.2721627,21.1483768 59.508,21.822 C59.945,21.955 60.368,22.122 60.808,22.264 C61.6007945,22.5164967 62.3382607,22.9176403 62.981,23.446 C63.3861968,23.7707935 63.6394528,24.248362 63.681,24.766 C63.6861702,25.1917953 63.5259242,25.602986 63.234,25.913 C62.6833233,26.4769644 62.0321592,26.9331185 61.314,27.258 C60.5584019,27.6063403 59.7830782,27.9101924 58.992,28.168 L44.719,33.282 L44.719,29.294 C44.726,29.241 44.697,29.149 44.772,29.135 C48.3913333,27.8503333 52.01,26.5633333 55.628,25.274 C56.1364649,25.1356742 56.6197938,24.9176362 57.06,24.628 C57.2590148,24.5114899 57.3609762,24.2805655 57.313,24.055 C57.2060207,23.8676849 57.0325545,23.7274129 56.827,23.662 C56.2802624,23.4740627 55.7050726,23.3823707 55.127,23.391 C54.2207934,23.3841599 53.3192442,23.521198 52.456,23.797 C49.878,24.697 47.304,25.61 44.726,26.509 L44.726,22.228 C46.5955414,21.5909934 48.5300788,21.1637048 50.494,20.954 Z M61.07,30.788 C61.8030616,30.7032455 62.5018704,31.1206485 62.7747784,31.8062752 C63.0476863,32.4919019 62.826868,33.2753547 62.2360814,33.7175469 C61.6452948,34.159739 60.8313669,34.1507732 60.2504643,33.6956744 C59.6695618,33.2405756 59.4660552,32.4524486 59.754,31.773 C59.9839004,31.232124 60.4862532,30.8561229 61.07,30.788 Z M60.948,31.088 C60.4101249,31.2144759 60.0029236,31.6548796 59.91891,32.2009999 C59.8348964,32.7471203 60.0909015,33.2895498 60.5658928,33.5718421 C61.0408842,33.8541344 61.639704,33.8197363 62.0792461,33.4849102 C62.5187881,33.1500842 62.7109965,32.5819079 62.565,32.049 C62.462379,31.6902849 62.21937,31.3881461 61.891,31.211 C61.6015253,31.05736 61.2663331,31.0133305 60.947,31.087 L60.948,31.088 Z M60.557,31.47 L61.438,31.47 C61.6096205,31.4609508 61.7776339,31.5215221 61.904,31.638 C62.0134499,31.7799672 62.0504279,31.9648573 62.004,32.138 C61.968217,32.2387831 61.9035212,32.3267833 61.818,32.391 C61.8904335,32.4356757 61.9449236,32.5043191 61.972,32.585 C61.9789676,32.7565609 61.9963328,32.9275414 62.024,33.097 C62.0630853,33.1527065 62.0875036,33.2173636 62.095,33.285 L61.731,33.285 C61.691436,33.0844808 61.6673649,32.8812138 61.659,32.677 C61.6343975,32.5969718 61.5586214,32.5438462 61.475,32.548 C61.275,32.54 61.075,32.548 60.875,32.548 C60.875,32.794 60.882,33.041 60.869,33.287 L60.562,33.287 C60.554,32.677 60.557,32.072 60.557,31.47 Z M60.876,31.757 L60.876,32.257 L61.409,32.257 C61.501454,32.2663999 61.5930447,32.2324228 61.657,32.165 C61.7143996,32.0664129 61.7143996,31.9445871 61.657,31.846 C61.602259,31.7814637 61.5191617,31.7481499 61.435,31.757 C61.252,31.753 61.063,31.756 60.876,31.757 Z M72,56 L72,65 L56,65 L72,56 Z" id="Color_Fill_3"></path>
        </g>
    </g>
</svg>