<?xml version="1.0" encoding="UTF-8"?>
<svg width="121px" height="85px" viewBox="0 0 100 70" version="1.1" xmlns="http://www.w3.org/2000/svg" xmlns:xlink="http://www.w3.org/1999/xlink">
    <!-- Generator: Sketch 51.2 (57519) - http://www.bohemiancoding.com/sketch -->
    <title>xboxone_white</title>
    <desc>Created with Sketch.</desc>
    <defs></defs>
    <g id="Demo-Page" stroke="none" stroke-width="1" fill="none" fill-rule="evenodd">
        <g id="xboxone_white" fill="#FFFFFF" fill-rule="nonzero">
            <path d="M85.707,54.126 L85.707,66.6 L76.542,54.116 L75.042,54.116 L75.042,69.3 L76.727,69.3 L76.727,57.1 L85.708,69.305 L87.397,69.305 L87.397,54.126 L85.707,54.126 Z M66.278,53.773 C62.018,53.773 59.041,57.039 59.041,61.714 C59.041,66.389 62.018,69.662 66.278,69.662 C70.538,69.662 73.5,66.4 73.5,61.714 C73.5,57.028 70.533,53.773 66.277,53.773 L66.278,53.773 Z M66.277,68.051 C63.033,68.051 60.758,65.445 60.758,61.712 C60.758,57.979 63.033,55.376 66.277,55.376 C69.521,55.376 71.777,57.982 71.777,61.712 C71.777,65.442 69.517,68.051 66.277,68.051 Z M90.989,67.824 L90.989,62.206 L99.329,62.206 L99.329,60.72 L90.989,60.72 L90.989,55.6 L99.9,55.6 L99.9,54.116 L89.29,54.116 L89.29,69.311 L100,69.311 L100,67.824 L90.989,67.824 Z M51.421,69.661 L46.578,63.071 L41.738,69.661 L39.738,69.661 L45.567,61.7 L40.249,54.463 L42.242,54.463 L46.578,60.363 L50.91,54.463 L52.9,54.463 L47.586,61.7 L53.413,69.663 L51.421,69.663 L51.421,69.661 Z M24.757,62.273 C24.4562823,62.0176138 24.1222192,61.8043247 23.764,61.639 C24.8856706,61.039911 25.5860987,59.8716338 25.586,58.6 C25.586,57.628 25.228,54.465 20.657,54.465 L14.5,54.465 L14.5,61.017 L12.448,61.017 C12.181,61.365 11.578,62.199 11.348,62.543 L14.5,62.543 L14.5,69.66 L20.658,69.66 C23.993,69.66 26.066,67.96 26.066,65.223 C26.0954383,64.0930762 25.6151361,63.0098258 24.758,62.273 L24.757,62.273 Z M16.2,56.047 L20.655,56.047 C21.862,56.047 23.881,56.347 23.881,58.463 C23.881,60.063 22.704,61.014 20.655,61.014 L16.2,61.014 L16.2,56.047 Z M20.655,68.075 L16.2,68.075 L16.2,62.541 L20.655,62.541 C22.345,62.541 24.365,63.009 24.365,65.19 C24.365,67.696 22.041,68.075 20.655,68.075 Z M34.075,54.109 C29.816,54.109 26.839,57.375 26.839,62.051 C26.839,66.727 29.816,70 34.075,70 C38.334,70 41.3,66.734 41.3,62.051 C41.3,57.368 38.332,54.109 34.076,54.109 L34.075,54.109 Z M34.076,68.389 C30.831,68.389 28.558,65.783 28.558,62.05 C28.558,58.317 30.831,55.715 34.076,55.715 C37.321,55.715 39.576,58.321 39.576,62.05 C39.576,65.779 37.315,68.389 34.076,68.389 Z M13.676,69.659 L7.842,61.7 L13.161,54.464 L11.168,54.464 L6.832,60.364 L2.5,54.461 L0.513,54.461 L5.828,61.7 L0,69.66 L2,69.66 L6.835,63.07 L11.677,69.659 L13.671,69.659 L13.676,69.659 Z M54.74,10.205 C54.666,10.32 54.611,10.432 54.54,10.546 C56.74,13.218 63.867,21.919 63.23,27.904 C68.6717377,21.115169 67.9289437,11.272274 61.53,5.377 C58.873,5.893 56.2,8.253 54.74,10.205 Z M45.464,10.54 C45.394,10.426 45.339,10.315 45.264,10.199 C43.8,8.252 41.128,5.899 38.464,5.38 C32.0806557,11.2663755 31.3311272,21.0848929 36.747,27.872 C36.115,21.893 43.26,13.208 45.464,10.54 Z M51.864,15.959 C51.264,15.45 50.658,14.931 50.002,14.4 C49.348,14.926 48.741,15.441 48.145,15.948 C43.81,19.78 38.269,24.856 38.322,29.6 C44.854604,35.8210275 55.1173394,35.8285034 61.659,29.617 C61.708,24.87 56.188,19.8 51.867,15.959 L51.864,15.959 Z M41.172,3.334 C44.3199526,3.38846303 47.38688,4.34080647 50.012,6.079 C52.6251412,4.34142135 55.6813769,3.38884194 58.819,3.334 C58.8261637,3.33623061 58.8338363,3.33623061 58.841,3.334 C53.4183142,0.00185110343 46.5826858,0.00185110343 41.16,3.334 C41.1639057,3.33522829 41.1680943,3.33522829 41.172,3.334 Z" id="Color_Fill_1"></path>
        </g>
    </g>
</svg>